<?xml version="1.0" encoding="utf-8"?>
<!-- Generator: Adobe Illustrator 24.2.1, SVG Export Plug-In . SVG Version: 6.00 Build 0)  -->
<svg version="1.1" id="Ebene_1" xmlns="http://www.w3.org/2000/svg" xmlns:xlink="http://www.w3.org/1999/xlink" x="0px" y="0px"
	 viewBox="0 0 24 24" style="enable-background:new 0 0 24 24;" xml:space="preserve">
<style type="text/css">
	.st0{fill:none;}
	.st1{fill:#293241;}
</style>
<g>
	<rect class="st0" width="24" height="24"/>
</g>
<path class="st1" d="M15,21h-2v-2h2V21z M13,14h-2v5h2V14z M21,12h-2v4h2V12z M19,10h-2v2h2V10z M7,12H5v2h2V12z M5,10H3v2h2V10z
	 M12,5h2V3h-2V5z M4.5,4.5v3h3v-3H4.5z M9,9H3V3h6V9z M4.5,16.5v3h3v-3H4.5z M9,21H3v-6h6V21z M16.5,4.5v3h3v-3H16.5z M21,9h-6V3h6
	V9z M19,19v-3h-4v2h2v3h4v-2H19z M17,12h-4v2h4V12z M13,10H7v2h2v2h2v-2h2V10z M14,9V7h-2V5h-2v4H14z M6.8,5.3H5.3v1.5h1.5V5.3z
	 M6.8,17.3H5.3v1.5h1.5V17.3z M18.8,5.3h-1.5v1.5h1.5V5.3z"/>
</svg>
